# xmcd CD database file
#
# Track frame offsets:
#	150
#	17021
#	33004
#	54464
#	67666
#	83756
#	102150
#	117575
#	131375
#	147270
#
# Disc length: 2120 seconds
#
# Revision: 0
# Processed by: cddbd v1.5.1PL0 Copyright (c) Steve Scherf et al.
# Submitted via: CDex 1.51
#
DISCID=7708460a
DTITLE=Barrett Baber - Fratbar Superstar
DYEAR=2004
DGENRE=Blues
TTITLE0=Delta Blues
TTITLE1=Sweet Caroline
TTITLE2=Raining in Richmond
TTITLE3=45-22
TTITLE4=Angel
TTITLE5=Roll
TTITLE6=Honorable Man
TTITLE7=Pull Me Down
TTITLE8=I Will
TTITLE9=Fratbar Superstar
EXTD=YEAR: 2004
EXTT0=
EXTT1=
EXTT2=
EXTT3=
EXTT4=
EXTT5=
EXTT6=
EXTT7=
EXTT8=
EXTT9=
PLAYORDER=
